<?xml version="1.0" encoding="iso-8859-1"?>
<!-- Generator: Adobe Illustrator 19.0.0, SVG Export Plug-In . SVG Version: 6.00 Build 0)  -->
<svg version="1.1" id="Capa_1" xmlns="http://www.w3.org/2000/svg" xmlns:xlink="http://www.w3.org/1999/xlink" x="0px" y="0px"
	 viewBox="0 0 512 512" style="enable-background:new 0 0 512 512;" xml:space="preserve">
<g>
	<g>
		<path d="M356.207,290.341c-0.008-0.059-0.017-0.129-0.026-0.195c-0.755-5.401-5.71-9.212-11.144-8.535
			c-5.48,0.686-9.367,5.683-8.683,11.163c0.007,0.058,0.016,0.128,0.026,0.195c0.696,4.983,4.969,8.613,9.891,8.613
			c0.413,0,0.832-0.025,1.253-0.078C353.004,300.818,356.891,295.821,356.207,290.341z"/>
	</g>
</g>
<g>
	<g>
		<path d="M508.09,414.168l-17.642-14.004c-0.72-0.572-1.459-1.107-2.208-1.62l-31.342-109.71
			c-18.604-65.124-61.038-119.841-119.482-154.072l-61.272-35.886l25.828-44.531c6.516-11.362,6.485-24.912-0.08-36.246
			C295.325,6.766,283.586,0,270.488,0h-29.284c-13.09,0-24.826,6.76-31.394,18.083c-6.567,11.323-6.608,24.867-0.108,36.229
			l25.657,44.854l-60.775,35.596C116.14,168.993,73.706,223.71,55.102,288.834L23.764,398.526c-0.741,0.509-1.473,1.038-2.186,1.605
			L3.91,414.152c-2.39,1.896-3.783,4.796-3.783,7.848v37c0,29.225,23.775,53,53,53h405.746c29.225,0,53-23.775,53-53v-37
			C511.873,418.949,510.48,416.064,508.09,414.168z M227.063,44.381c-2.918-5.1-2.901-11.18,0.048-16.263
			C230.06,23.035,235.328,20,241.204,20h29.284c5.88,0,11.15,3.038,14.098,8.125c2.947,5.088,2.961,11.171,0.036,16.271
			l-25.633,44.747c-1.998-0.627-4.138-0.608-6.128,0.051L227.063,44.381z M74.332,294.328
			c17.185-60.152,56.378-110.691,110.359-142.308l68.928-40.371l30.636,38.017c19.759,24.518,35.459,60.991,45.402,105.476
			c1.04,4.656,5.17,7.821,9.749,7.821c0.723,0,1.457-0.079,2.191-0.243c5.39-1.205,8.782-6.551,7.577-11.941
			c-10.609-47.463-27.673-86.768-49.348-113.663l-1.818-2.256l29.299,17.16c53.981,31.617,93.175,82.156,110.359,142.308
			l27.868,97.549c-7.991,0.255-15.926,3.034-22.603,8.351c-6.644,5.295-15.932,5.3-22.599,0.012l-0.102-0.08
			c-13.987-11.102-33.512-11.08-47.481,0.043c-6.657,5.302-15.956,5.303-22.613,0.001c-0.022-0.019-0.046-0.036-0.068-0.055
			c-13.964-11.071-33.448-11.07-47.439,0.03l-0.117,0.094c-6.642,5.272-15.92,5.272-22.552,0.01l-0.155-0.123
			c-13.988-11.1-33.513-11.08-47.511,0.066c-6.646,5.293-15.934,5.299-22.587,0.021l-0.141-0.112
			c-13.969-11.086-33.477-11.084-47.447,0.011l-0.126,0.101c-6.657,5.285-15.947,5.276-22.624-0.04
			c-13.969-11.128-33.495-11.146-47.509-0.025l-0.112,0.09c-6.643,5.273-15.923,5.272-22.546,0.015l-0.193-0.154
			c-6.654-5.281-14.566-8.039-22.537-8.288L74.332,294.328z M491.873,459c0,18.196-14.804,33-33,33H53.127
			c-18.196,0-33-14.804-33-33v-32.185l13.885-11.019c6.641-5.273,15.921-5.273,22.546-0.015l0.193,0.154
			c13.965,11.084,33.47,11.082,47.456-0.018l0.111-0.09c6.656-5.281,15.946-5.273,22.62,0.043
			c13.972,11.13,33.503,11.147,47.5,0.031l0.126-0.101c6.646-5.274,15.926-5.274,22.567-0.004l0.141,0.112
			c13.988,11.104,33.516,11.085,47.514-0.063c6.646-5.291,15.934-5.302,22.577-0.03l0.155,0.123
			c13.964,11.08,33.467,11.081,47.452-0.021l0.116-0.093c6.655-5.28,15.945-5.272,22.589,0.02c0.021,0.017,0.044,0.034,0.065,0.051
			c13.989,11.097,33.5,11.078,47.472-0.05c6.646-5.294,15.935-5.301,22.6-0.013l0.102,0.08c13.99,11.102,33.514,11.081,47.51-0.065
			c6.645-5.294,15.935-5.302,22.591-0.021l13.858,11.001V459z"/>
	</g>
</g>
<g>
	<g>
		<path d="M162.373,456.667H58.856c-2.94,0-5.333-2.393-5.333-5.333c0-5.522-4.478-10-10-10c-5.522,0-10,4.478-10,10
			c0,13.969,11.364,25.333,25.333,25.333h103.517c5.522,0,10-4.478,10-10C172.373,461.145,167.896,456.667,162.373,456.667z"/>
	</g>
</g>
<g>
	<g>
		<path d="M210.613,459.6c-1.86-1.871-4.44-2.93-7.07-2.93c-2.64,0-5.21,1.06-7.07,2.93c-1.87,1.86-2.93,4.431-2.93,7.07
			c0,2.63,1.06,5.21,2.93,7.07c1.86,1.859,4.431,2.93,7.07,2.93c2.63,0,5.21-1.07,7.07-2.93c1.859-1.87,2.93-4.44,2.93-7.07
			S212.473,461.46,210.613,459.6z"/>
	</g>
</g>
</svg>
