<?xml version="1.0" encoding="iso-8859-1"?>
<!-- Generator: Adobe Illustrator 19.0.0, SVG Export Plug-In . SVG Version: 6.00 Build 0)  -->
<svg version="1.1" id="Capa_1" xmlns="http://www.w3.org/2000/svg" xmlns:xlink="http://www.w3.org/1999/xlink" x="0px" y="0px"
	 viewBox="0 0 512 512" style="enable-background:new 0 0 512 512;" xml:space="preserve">
<g>
	<g>
		<path d="M448,117.333c0-9.557-4.296-18.051-10.96-23.919l-10.52-63.164c-0.854-5.146-5.313-8.917-10.521-8.917
			c-5.208,0-9.667,3.771-10.521,8.917l-10.52,63.164c-6.664,5.868-10.96,14.362-10.96,23.919c0,12.073,6.797,22.478,16.693,27.926
			c-3.695,3.839-6.026,9.007-6.026,14.741c0,7.794,4.408,14.332,10.667,18.056v6.555c-6.259,3.724-10.667,10.262-10.667,18.056
			c0,7.794,4.408,14.332,10.667,18.056v248.611c0,11.76-9.563,21.333-21.333,21.333c-11.771,0-21.333-9.573-21.333-21.333V267.958
			c0-18.354-14.938-33.292-33.292-33.292c-8.875,0-17.229,3.458-23.542,9.75L288,262.25l-3.125-3.125c-4-4-11.083-4-15.083,0
			l-30.536,30.544c-2.728-7.1-4.589-14.48-4.589-22.148v-0.854c0-5.896-4.771-10.667-10.667-10.667V85.333h42.667
			c5.896,0,10.667-4.771,10.667-10.667c0-5.896-4.771-10.667-10.667-10.667h-27.313C249.589,52.651,256,37.784,256,21.333V10.667
			C256,4.771,251.229,0,245.333,0H138.667C132.771,0,128,4.771,128,10.667v10.667c0,16.451,6.411,31.318,16.646,42.667h-27.313
			c-5.896,0-10.667,4.771-10.667,10.667c0,5.896,4.771,10.667,10.667,10.667H160V256c-5.896,0-10.667,5.625-10.667,11.521
			c0,20.333-10.083,39.604-27.646,52.875C85.563,347.688,64,383.427,64,416c0,41.622,23.372,71.254,64.089,85.776
			c0.243,5.678,4.839,10.224,10.578,10.224h106.667c5.74,0,10.335-4.546,10.578-10.224C296.628,487.254,320,457.622,320,416
			c0-29.268-17.517-61.038-47.257-86.993l33.465-33.465c4.167-4.167,4.167-10.917,0-15.083l-3.124-3.124l17.832-17.824
			c6.979-6.958,20.417-1.323,20.417,8.448v201.375C341.333,492.865,360.479,512,384,512c23.521,0,42.667-19.135,42.667-42.667
			V220.723c6.259-3.724,10.667-10.262,10.667-18.056c0-7.794-4.408-14.332-10.667-18.056v-6.555
			c6.259-3.724,10.667-10.262,10.667-18.056c0-5.734-2.331-10.902-6.026-14.741C441.203,139.811,448,129.406,448,117.333z
			 M149.333,21.333h85.333C234.667,44.865,215.521,64,192,64S149.333,44.865,149.333,21.333z M202.667,85.333V256h-21.333V85.333
			H202.667z M290.178,384c5.458,10.815,8.488,21.68,8.488,32c0,47.448-38.875,74.667-106.667,74.667S85.333,463.448,85.333,416
			c0-10.32,3.03-21.185,8.488-32H290.178z M275.971,362.667H108.029c7.332-8.853,16.158-17.411,26.534-25.25
			c19.979-15.104,32.542-36.375,35.458-60.083h43.896c2.771,23.354,15.375,44.865,35.521,60.083
			C259.814,345.255,268.639,353.814,275.971,362.667z M256.572,315.012c-2.165-2.023-4.486-3.928-6.346-6.145l27.108-27.117
			l6.25,6.25L256.572,315.012z M416,128c-5.875,0-10.667-4.781-10.667-10.667c0-5.885,4.792-10.667,10.667-10.667
			s10.667,4.781,10.667,10.667C426.667,123.219,421.875,128,416,128z"/>
	</g>
</g>

</svg>
