<?xml version="1.0" encoding="iso-8859-1"?>
<!-- Generator: Adobe Illustrator 19.0.0, SVG Export Plug-In . SVG Version: 6.00 Build 0)  -->
<svg version="1.1" id="Capa_1" xmlns="http://www.w3.org/2000/svg" xmlns:xlink="http://www.w3.org/1999/xlink" x="0px" y="0px"
	 viewBox="0 0 512 512" style="enable-background:new 0 0 512 512;" xml:space="preserve">
<g>
	<g>
		<path d="M382.03,0C310.364,0,252.06,58.305,252.06,129.97c0,0.202,0,0.404,0.002,0.608L55.319,376.91l29.28,29.28L0,490.789
			L21.211,512l84.599-84.599l29.28,29.28l246.332-196.742c0.204,0.002,0.406,0.002,0.608,0.002
			c71.667,0,129.97-58.305,129.97-129.969C512,58.305,453.695,0,382.03,0z M137.332,416.498l-41.83-41.83L268.455,158.12
			l85.425,85.425L137.332,416.498z M382.692,229.935L282.065,129.308c0.359-54.821,45.061-99.311,99.965-99.311
			c55.125,0,99.973,44.849,99.973,99.973C482.002,184.874,437.513,229.576,382.692,229.935z"/>
	</g>
</g>
<g>
	<g>
		
			<rect x="247.916" y="226.652" transform="matrix(0.7071 -0.7071 0.7071 0.7071 -91.6922 261.9376)" width="44.848" height="29.997"/>
	</g>
</g>

</svg>
