<?xml version="1.0" encoding="iso-8859-1"?>
<!-- Generator: Adobe Illustrator 19.0.0, SVG Export Plug-In . SVG Version: 6.00 Build 0)  -->
<svg version="1.1" id="Capa_1" xmlns="http://www.w3.org/2000/svg" xmlns:xlink="http://www.w3.org/1999/xlink" x="0px" y="0px"
	 viewBox="0 0 512 512" style="enable-background:new 0 0 512 512;" xml:space="preserve">
<g>
	<g>
		<path d="M92.467,330.104c0-3.226,3.017-6.244,10.406-6.244c8.533,0,10.511,3.954,14.257,3.954c4.579,0,6.452-5.723,6.452-8.533
			c0-8.117-15.193-9.158-20.709-9.158c-13.009,0-26.641,5.932-26.641,21.542c0,24.351,32.988,22.166,32.988,34.758
			c0,4.995-5.308,6.868-10.094,6.868c-9.678,0-12.8-7.701-17.691-7.701c-3.954,0-7.076,5.204-7.076,8.742
			c0,6.868,11.447,13.528,25.079,13.528c15.09,0,26.017-8.117,26.017-23.102C125.455,338.533,92.467,340.51,92.467,330.104z"/>
	</g>
</g>
<g>
	<g>
		<path d="M188.514,379.014l-19.46-63.48c-1.144-3.642-5.828-5.411-10.615-5.411c-4.787,0-9.469,1.769-10.614,5.411l-19.356,63.48
			c-0.103,0.416-0.208,0.833-0.208,1.145c0,3.851,5.931,6.66,10.406,6.66c2.602,0,4.683-0.833,5.307-3.018l3.538-13.008h21.958
			l3.538,13.008c0.624,2.185,2.706,3.018,5.308,3.018c4.474,0,10.406-2.809,10.406-6.66
			C188.722,379.847,188.618,379.43,188.514,379.014z M166.036,358.306h-15.194l7.597-27.89L166.036,358.306L166.036,358.306z"/>
	</g>
</g>
<g>
	<g>
		<path d="M238.774,310.748c-4.162,0-8.117,1.457-8.117,4.891h-0.002v47.246c0,7.077-3.746,10.407-9.99,10.407
			c-6.243,0-9.99-3.33-9.99-10.407v-47.246c0-3.434-4.162-4.891-8.116-4.891c-4.163,0-8.117,1.457-8.117,4.891v47.246
			c0,17.899,11.448,24.559,26.224,24.559c14.674,0,26.225-6.66,26.225-24.559v-47.246
			C246.891,312.205,242.729,310.748,238.774,310.748z"/>
	</g>
</g>
<g>
	<g>
		<path d="M302.875,310.749c-4.058,0-8.117,1.457-8.117,4.891v35.382L277.9,318.866c-3.954-7.597-6.14-8.117-11.968-8.117
			c-4.059,0-8.117,1.56-8.117,4.995v66.081c0,3.33,4.058,4.995,8.117,4.995c4.058,0,8.117-1.665,8.117-4.995v-35.382l19.772,36.006
			c1.978,3.642,5.308,4.37,9.054,4.371c4.058,0,8.117-1.665,8.117-4.995V315.64C310.992,312.206,306.933,310.749,302.875,310.749z"
			/>
	</g>
</g>
<g>
	<g>
		<path d="M377.278,379.014l-19.46-63.48c-1.144-3.642-5.828-5.411-10.615-5.411c-4.787,0-9.469,1.769-10.614,5.411l-19.357,63.48
			c-0.104,0.416-0.208,0.833-0.208,1.145c0,3.851,5.932,6.66,10.407,6.66c2.602,0,4.683-0.833,5.307-3.018l3.538-13.008h21.958
			l3.538,13.008c0.624,2.185,2.706,3.018,5.308,3.018c4.474,0,10.406-2.809,10.406-6.66
			C377.486,379.847,377.383,379.43,377.278,379.014z M354.8,358.306h-15.194l7.597-27.89L354.8,358.306L354.8,358.306z"/>
	</g>
</g>
<g>
	<g>
		<path d="M91.621,267.368c-0.13-0.64-0.32-1.27-0.57-1.87c-0.25-0.61-0.56-1.19-0.92-1.73c-0.37-0.55-0.79-1.06-1.25-1.52
			c-0.46-0.46-0.97-0.88-1.521-1.24c-0.54-0.36-1.119-0.67-1.72-0.92c-0.61-0.25-1.24-0.44-1.88-0.57c-1.28-0.26-2.61-0.26-3.9,0
			c-0.639,0.13-1.269,0.32-1.869,0.57c-0.61,0.25-1.19,0.56-1.73,0.92c-0.55,0.36-1.06,0.78-1.52,1.24
			c-0.46,0.46-0.881,0.97-1.24,1.52c-0.36,0.54-0.67,1.12-0.92,1.73c-0.25,0.6-0.44,1.23-0.57,1.87s-0.2,1.3-0.2,1.95
			c0,0.65,0.07,1.31,0.2,1.96c0.13,0.63,0.32,1.26,0.57,1.87c0.25,0.6,0.56,1.18,0.92,1.72c0.359,0.55,0.78,1.06,1.24,1.52
			c0.46,0.46,0.97,0.88,1.52,1.25c0.54,0.361,1.12,0.671,1.73,0.921c0.599,0.25,1.229,0.44,1.869,0.57
			c0.64,0.13,1.301,0.19,1.95,0.19c0.65,0,1.31-0.06,1.95-0.19s1.271-0.32,1.88-0.57c0.601-0.25,1.18-0.561,1.72-0.921
			c0.551-0.37,1.061-0.79,1.521-1.25c0.46-0.46,0.88-0.97,1.25-1.52c0.36-0.54,0.67-1.12,0.92-1.72c0.25-0.61,0.44-1.24,0.57-1.87
			c0.129-0.65,0.189-1.31,0.189-1.96S91.751,268.008,91.621,267.368z"/>
	</g>
</g>
<g>
	<g>
		<path d="M484.48,304.002c-2.725-3.598-7.52-4.925-11.704-3.243c-0.951,0.383-10.547,4.316-22.495,11.864V195.782
			c0-5.523-4.478-10-10-10H324.118l-65.926-78.998c4.909-6.743,7.808-15.038,7.808-23.997c0-22.53-18.329-40.859-40.859-40.859
			c-22.53,0-40.859,18.33-40.859,40.859c0,8.96,2.899,17.255,7.808,23.997l-65.926,78.998H10c-5.523,0-10,4.477-10,10v264.289
			c0,5.523,4.477,10,10,10h424.905c0.011,0,0.022,0.001,0.034,0.001c0.169,0,0.339-0.005,0.509-0.013
			c0.005,0,0.01-0.001,0.015-0.001c0.074-0.004,0.149-0.009,0.223-0.014c0.027-0.002,0.054-0.004,0.081-0.007
			c0.05-0.004,0.1-0.008,0.151-0.013c0.046-0.004,0.092-0.009,0.137-0.015c0.029-0.003,0.058-0.006,0.086-0.01
			c0.064-0.008,0.128-0.016,0.192-0.025c0.009-0.001,0.017-0.002,0.025-0.004c0.883-0.126,1.73-0.367,2.523-0.708
			c4.427-1.815,58.032-24.634,70.425-69.36C521.96,354.232,486.017,306.032,484.48,304.002z M225.141,61.928
			c11.502,0,20.859,9.357,20.859,20.859s-9.357,20.859-20.859,20.859c-11.502,0-20.859-9.357-20.859-20.859
			S213.639,61.928,225.141,61.928z M207.436,119.608c5.359,2.587,11.365,4.038,17.704,4.038s12.345-1.451,17.704-4.038
			l55.224,66.174H152.213L207.436,119.608z M20,450.072v-244.29h410.281V327.64c-6.733,6.048-13.19,13.125-18.43,21.24V234.212
			c0-5.523-4.478-10-10-10H48.43c-5.522,0-10,4.477-10,10v187.43c0,5.523,4.478,10,10,10h353.422c2.05,0,3.956-0.617,5.542-1.676
			c2.933,7.652,6.299,14.489,9.404,20.106H20z M117.307,279.321h274.545v132.32H58.43v-167.43h333.422v15.11H117.307
			c-5.522,0-10,4.477-10,10S111.785,279.321,117.307,279.321z M422.858,395.447c-0.865,3.123-1.524,6.318-1.976,9.581
			c-1.869-9.639-2.16-19.774,0.53-29.481c7.629-27.536,37.6-45.682,51.578-52.818c1.734,2.777,3.817,6.322,5.96,10.442
			C461.078,343.172,431.594,363.916,422.858,395.447z M490.031,394.561c-6.553,23.65-29.584,40.372-44.81,49.142
			c-5.498-16.055-6.54-30.464-3.09-42.915c6.569-23.708,29.588-40.413,44.798-49.159
			C491.461,364.877,494.014,380.189,490.031,394.561z"/>
	</g>
</g>

</svg>
