<?xml version="1.0" encoding="iso-8859-1"?>
<!-- Generator: Adobe Illustrator 19.0.0, SVG Export Plug-In . SVG Version: 6.00 Build 0)  -->
<svg version="1.1" id="Capa_1" xmlns="http://www.w3.org/2000/svg" xmlns:xlink="http://www.w3.org/1999/xlink" x="0px" y="0px"
	 viewBox="0 0 512.001 512.001" style="enable-background:new 0 0 512.001 512.001;" xml:space="preserve">
<g>
	<g>
		<path d="M511.168,321.354L471.54,207.17c-6.293-18.137-21.204-31.604-39.885-36.026c-9.052-2.143-16.28-9.023-18.865-17.958
			l-14.204-49.08c-4.567-15.78-16.744-27.825-32.575-32.219c-5.396-1.497-9.704-5.553-11.525-10.848L338.96,15.89
			c-2.083-6.057-7.78-10.122-14.185-10.122H187.292c-6.404,0-12.102,4.065-14.185,10.122l-15.527,45.149
			c-1.821,5.295-6.13,9.351-11.526,10.848c-15.83,4.394-28.007,16.438-32.574,32.219l-14.203,49.079
			c-2.587,8.936-9.815,15.816-18.865,17.959c-18.683,4.422-33.594,17.891-39.886,36.025L0.833,321.541
			c-2.571,7.408,0.998,15.547,8.19,18.674c25.246,10.979,55.558,16.596,87.69,16.209c27.655-0.322,55.368-5.202,78.799-13.815
			c23.748,9.274,51.332,13.913,79.251,13.913c27.951-0.001,56.24-4.651,81.333-13.954c49.276,19.267,115.323,18.465,166.56-2.404
			C510.043,337.155,513.783,328.891,511.168,321.354z M176.467,189.183l-14.63,126.461c-39.755,13.758-89.334,14.414-127.879,1.947
			l34.909-100.587c2.912-8.391,9.811-14.622,18.456-16.668c19.56-4.631,35.181-19.502,40.77-38.811l14.204-49.08
			c1.651-5.707,6.055-10.063,11.778-11.65c14.923-4.142,26.838-15.356,31.872-30l12.047-35.027h18.3l-4.399,38.39l-6.524,5.432
			c-3.038,2.528-4.954,6.154-5.334,10.088l-7.939,82.312l-9.417,6.688C179.215,181.139,176.955,184.958,176.467,189.183z
			 M191.92,316.66l13.581-117.396l9.557-6.787c3.548-2.52,5.827-6.457,6.245-10.789l8.005-82.992l6.404-5.331
			c2.966-2.469,4.866-5.986,5.306-9.82l5.475-47.779h19.074v0.001l5.477,47.779c0.439,3.834,2.34,7.352,5.306,9.82l6.404,5.331
			l8.006,82.992c0.418,4.332,2.697,8.27,6.245,10.789l9.557,6.787l13.547,117.103C279.85,329.699,230.078,329.802,191.92,316.66z
			 M350.244,315.834l-14.652-126.653c-0.488-4.225-2.748-8.044-6.215-10.506l-9.417-6.688l-7.94-82.312
			c-0.38-3.934-2.296-7.56-5.334-10.088l-6.524-5.432l-4.4-38.39h18.308l12.046,35.028c5.035,14.645,16.95,25.859,31.872,30.001
			c5.725,1.588,10.128,5.943,11.779,11.65l14.204,49.08c5.588,19.309,21.211,34.18,40.771,38.811
			c8.645,2.046,15.543,8.277,18.455,16.669l34.762,100.163C437.263,329.866,387.715,329.433,350.244,315.834z"/>
	</g>
</g>
<g>
	<g>
		<path d="M510.888,395.469c-3.125-7.672-11.88-11.358-19.55-8.233c-45.522,18.541-106.785,18.675-148.983,0.324
			c-3.724-1.622-8.128-1.663-11.887-0.132c-45.333,18.464-106.522,18.519-148.8,0.132c-3.705-1.61-7.901-1.66-11.641-0.136
			C124.62,405.92,63.331,405.975,20.985,387.56c-7.596-3.302-16.433,0.177-19.737,7.774c-3.304,7.596,0.177,16.433,7.775,19.737
			c25.246,10.979,55.558,16.585,87.69,16.209c27.655-0.322,55.368-5.202,78.799-13.815c23.747,9.274,51.331,13.913,79.25,13.913
			c27.951-0.001,56.24-4.652,81.334-13.954c23.657,9.249,51.17,13.875,79.061,13.873c30.208-0.001,60.859-5.428,87.5-16.278
			C510.327,411.894,514.013,403.141,510.888,395.469z"/>
	</g>
</g>
<g>
	<g>
		<path d="M510.887,470.325c-3.125-7.673-11.879-11.359-19.549-8.233c-45.522,18.538-106.785,18.673-148.983,0.323
			c-3.645-1.585-8.139-1.659-11.887-0.132c-45.333,18.464-106.522,18.518-148.8,0.132c-3.705-1.61-7.901-1.66-11.641-0.136
			c-45.408,18.494-106.697,18.551-149.044,0.136c-7.596-3.301-16.433,0.177-19.737,7.774s0.177,16.434,7.774,19.737
			c25.246,10.978,55.558,16.574,87.69,16.209c27.655-0.322,55.368-5.202,78.799-13.815c23.748,9.274,51.332,13.913,79.251,13.913
			c27.951-0.001,56.24-4.651,81.333-13.954c23.656,9.249,51.171,13.874,79.062,13.874c30.208-0.002,60.858-5.428,87.499-16.278
			C510.326,486.751,514.012,477.998,510.887,470.325z"/>
	</g>
</g>

</svg>
