<?xml version="1.0" encoding="iso-8859-1"?>
<!-- Generator: Adobe Illustrator 19.0.0, SVG Export Plug-In . SVG Version: 6.00 Build 0)  -->
<svg version="1.1" id="Capa_1" xmlns="http://www.w3.org/2000/svg" xmlns:xlink="http://www.w3.org/1999/xlink" x="0px" y="0px"
	 viewBox="0 0 496 496" style="enable-background:new 0 0 496 496;" xml:space="preserve">
<g>
	<g>
		<g>
			<path d="M488,208H8c-4.418,0.001-7.999,3.584-7.998,8.002c0,0.352,0.023,0.705,0.07,1.054L32,456.528V488c0,4.418,3.582,8,8,8
				h416c4.418,0,8-3.582,8-8v-31.472l31.928-239.472c0.305-2.286-0.392-4.593-1.912-6.328C492.497,208.995,490.305,208,488,208z
				 M360,224h32v112h-32V224z M280,224h64v112h-64V224z M232,224h32v112h-32V224z M152,224h64v112h-64V224z M104,224h32v112h-32V224
				z M17.144,224H88v112H32.072L17.144,224z M38.472,384H88v64H47.008L38.472,384z M448,480H48v-16h400V480z M104,448v-64h32v64H104
				z M152,448v-64h64v64H152z M232,448v-64h32v64H232z M280,448v-64h64v64H280z M360,448v-64h32v64H360z M448.992,448H408v-64
				h49.528L448.992,448z M459.656,368H36.344l-2.136-16h427.584L459.656,368z M463.928,336H408V224h70.856L463.928,336z"/>
			<path d="M48,96c26.51,0,48-21.49,48-48S74.51,0,48,0S0,21.49,0,48C0.026,74.499,21.501,95.974,48,96z M48,16
				c17.673,0,32,14.327,32,32S65.673,80,48,80S16,65.673,16,48S30.327,16,48,16z"/>
			<path d="M80,128c0,17.673,14.327,32,32,32s32-14.327,32-32s-14.327-32-32-32S80,110.327,80,128z M112,112c8.837,0,16,7.163,16,16
				s-7.163,16-16,16s-16-7.163-16-16S103.163,112,112,112z"/>
			<path d="M416,184c17.673,0,32-14.327,32-32s-14.327-32-32-32c-17.673,0-32,14.327-32,32S398.327,184,416,184z M416,136
				c8.837,0,16,7.163,16,16s-7.163,16-16,16s-16-7.163-16-16S407.163,136,416,136z"/>
			<path d="M448,96c26.51,0,48-21.49,48-48S474.51,0,448,0c-26.51,0-48,21.49-48,48C400.026,74.499,421.501,95.974,448,96z M448,16
				c17.673,0,32,14.327,32,32s-14.327,32-32,32c-17.673,0-32-14.327-32-32S430.327,16,448,16z"/>
			<path d="M218.344,189.656l11.312-11.312l-22.624-22.632c-4.489-4.508-7.016-10.606-7.032-16.968v-5.488
				c0.016-6.362,2.543-12.46,7.032-16.968l13.248-13.264c7.526-7.484,11.746-17.667,11.72-28.28v-5.488
				c0.026-10.613-4.194-20.796-11.72-28.28l-22.624-22.632l-11.312,11.312l22.624,22.632c4.489,4.508,7.016,10.606,7.032,16.968
				v5.488c-0.016,6.362-2.543,12.46-7.032,16.968l-13.248,13.264c-7.526,7.484-11.746,17.667-11.72,28.28v5.488
				c-0.026,10.613,4.194,20.796,11.72,28.28L218.344,189.656z"/>
			<path d="M298.344,189.656l11.312-11.312l-22.624-22.632c-4.489-4.508-7.016-10.606-7.032-16.968v-5.488
				c0.016-6.362,2.543-12.46,7.032-16.968l13.248-13.264c7.526-7.484,11.746-17.667,11.72-28.28v-5.488
				c0.026-10.613-4.194-20.796-11.72-28.28l-22.624-22.632l-11.312,11.312l22.624,22.632c4.489,4.508,7.016,10.606,7.032,16.968
				v5.488c-0.016,6.362-2.543,12.46-7.032,16.968l-13.248,13.264c-7.526,7.484-11.746,17.667-11.72,28.28v5.488
				c-0.026,10.613,4.194,20.796,11.72,28.28L298.344,189.656z"/>
		</g>
	</g>
</g>

</svg>
